<?xml version="1.0" encoding="UTF-8"?>
<svg id="uuid-a0fbe30c-a20d-4d76-ad99-35bba0da4f9b" data-name="Layer 1" xmlns="http://www.w3.org/2000/svg" viewBox="175 260 265 265">
  <defs>
    <style>
      .uuid-f6ad5fd8-3177-4ba3-b98c-7c931f0c6fc9 {
        fill: none;
        stroke: #fbb040;
        stroke-miterlimit: 10;
        stroke-width: 10px;
      }

      .uuid-e0e3e338-6616-47ca-81f9-bba8968342e0 {
        fill: #fbb040;
      }
    </style>
  </defs>
  <path class="uuid-e0e3e338-6616-47ca-81f9-bba8968342e0" d="M366.71,327.22l-.78-3.25-3.3-.52c-1.24-.2-30.57-4.65-43.19,10.51-9.43,11.31-7.39,25.37-5.61,32.13-1.82,1.76-3.67,4.03-5.21,6.75-4.06-8.59-10.82-18.6-20.91-21.09-17.36-4.3-35.98,11.12-36.77,11.77l-2.56,2.15,1,3.18c.38,1.2,9.47,29.42,28.68,33.96,2.39.56,4.7.81,6.92.81,8.98,0,16.43-4.05,21.3-7.66.22.72.45,1.44.73,2.18,5.9,15.84,4.5,38.97,4.16,43.47l-43.37.63.15,10,90.29-1.31-.15-10-36.88.54c.47-6.7,1.51-29.78-4.82-46.81-4.06-10.9.93-17.96,4.17-21.14,2.7.47,7.77,1.19,13.58,1.19,9.23,0,20.32-1.82,26.72-9.32h0c11.6-13.61,6.12-37.16,5.88-38.16ZM280.36,393.08c-9.81-2.32-17.1-16.01-20.27-23.98,5.76-4.03,16.53-9.81,25.21-7.65,8.82,2.18,15.12,16.41,17.68,24.29-3.7,3.31-12.44,9.74-22.62,7.34ZM353.22,358.89c-5.9,6.93-21.46,6.21-29.65,4.98-1.36-4.85-3.18-15.45,3.54-23.52,6.45-7.74,21.95-8.16,30.5-7.43,1.03,6.96,1.4,19.17-4.4,25.97Z"/>
  <circle class="uuid-f6ad5fd8-3177-4ba3-b98c-7c931f0c6fc9" cx="307.14" cy="390.98" r="115.82"/>
</svg>