<?xml version="1.0" encoding="UTF-8"?>
<svg id="uuid-c7822e10-0414-4331-9686-5956d0b4b9e2" data-name="Layer 1" xmlns="http://www.w3.org/2000/svg" xmlns:xlink="http://www.w3.org/1999/xlink" viewBox="175 260 265 265">
  <defs>
    <style>
      .uuid-a2cd24d7-9bd1-4f65-acfd-107a098490ee {
        fill: url(#uuid-8effe5e2-0b59-468c-97f7-15728708dde0);
      }

      .uuid-acec4efd-19ba-426a-9229-265c2d217e5f {
        fill: none;
        stroke: url(#uuid-31822b68-129e-400b-96ee-5dcd7b3c1f74);
        stroke-miterlimit: 10;
        stroke-width: 10px;
      }
    </style>
    <linearGradient id="uuid-8effe5e2-0b59-468c-97f7-15728708dde0" x1="304.62" y1="363.54" x2="308.89" y2="483.3" gradientUnits="userSpaceOnUse">
      <stop offset="0" stop-color="#8cc63f"/>
      <stop offset="1" stop-color="#006837"/>
    </linearGradient>
    <linearGradient id="uuid-31822b68-129e-400b-96ee-5dcd7b3c1f74" x1="192.46" y1="395.38" x2="434.1" y2="395.38" gradientTransform="translate(-74.98 720.31) rotate(-92.36)" gradientUnits="userSpaceOnUse">
      <stop offset="0" stop-color="#006937"/>
      <stop offset="1" stop-color="#8bc540"/>
    </linearGradient>
  </defs>
  <path class="uuid-a2cd24d7-9bd1-4f65-acfd-107a098490ee" d="M362.89,333.76l-.78-3.25-3.3-.52c-1.24-.2-30.57-4.65-43.19,10.51-9.43,11.31-7.39,25.37-5.61,32.13-1.82,1.76-3.67,4.03-5.21,6.75-4.06-8.59-10.82-18.6-20.91-21.09-17.36-4.3-35.98,11.12-36.77,11.77l-2.56,2.15,1,3.18c.38,1.2,9.47,29.42,28.68,33.96,2.39.56,4.7.81,6.92.81,8.98,0,16.43-4.05,21.3-7.66.22.72.45,1.44.73,2.18,5.9,15.84,4.5,38.97,4.16,43.47l-43.37.63.15,10,90.29-1.31-.15-10-36.88.54c.47-6.7,1.51-29.78-4.82-46.81-4.06-10.9.93-17.96,4.17-21.14,2.7.47,7.77,1.19,13.58,1.19,9.23,0,20.32-1.82,26.72-9.32h0c11.6-13.61,6.12-37.16,5.88-38.16ZM276.54,399.62c-9.81-2.32-17.1-16.01-20.27-23.98,5.76-4.03,16.53-9.81,25.21-7.65,8.82,2.18,15.12,16.41,17.68,24.29-3.7,3.31-12.44,9.74-22.62,7.34ZM349.4,365.44c-5.9,6.93-21.46,6.21-29.65,4.98-1.36-4.85-3.18-15.45,3.54-23.52,6.45-7.74,21.95-8.16,30.5-7.43,1.03,6.96,1.4,19.17-4.4,25.97Z"/>
  <circle class="uuid-acec4efd-19ba-426a-9229-265c2d217e5f" cx="307.14" cy="390.98" r="115.82"/>
</svg>