<?xml version="1.0" encoding="UTF-8"?>
<svg id="Layer_2" data-name="Layer 2" xmlns="http://www.w3.org/2000/svg" xmlns:xlink="http://www.w3.org/1999/xlink" viewBox="0 0 265.94 265.94">
  <defs>
    <style>
      .cls-1 {
        fill: url(#linear-gradient-2);
      }

      .cls-2 {
        fill: url(#linear-gradient-3);
      }

      .cls-3 {
        fill: none;
        stroke: url(#linear-gradient);
        stroke-miterlimit: 10;
        stroke-width: 10px;
      }
    </style>
    <linearGradient id="linear-gradient" x1="20.37" y1="203.73" x2="245.57" y2="62.21" gradientUnits="userSpaceOnUse">
      <stop offset="0" stop-color="#006837"/>
      <stop offset="1" stop-color="#8cc63f"/>
    </linearGradient>
    <linearGradient id="linear-gradient-2" x1="90.07" y1="156.04" x2="184.09" y2="96.95" xlink:href="#linear-gradient"/>
    <linearGradient id="linear-gradient-3" x1="118.64" y1="139.99" x2="150.59" y2="119.91" xlink:href="#linear-gradient"/>
  </defs>
  <g id="Layer_1-2" data-name="Layer 1">
    <circle class="cls-3" cx="132.97" cy="132.97" r="127.97"/>
    <g>
      <path class="cls-1" d="M181.65,93.07c-.12-.19-.24-.38-.36-.58-5.94-.24-15.02-1.41-25.16-5.47-10.51-4.21-18.62-9.92-23.11-13.95-2.25,2.01-5.41,4.46-9.31,6.91-3.91,2.46-8.57,4.94-13.82,7.04-10.14,4.06-19.22,5.23-25.16,5.47-.12.19-.24.38-.36.58.21,12.17-.57,24.66-.05,36.81,1.17,27.5,19.31,53,45.39,62.11,1.69.59,2.4.91,3.27.89.86.02,1.66-.3,3.34-.89,26.08-9.1,44.22-34.6,45.39-62.11.52-12.14-.26-24.64-.05-36.81ZM172.02,143.14c-4.43,16.47-16.15,30.94-31.31,38.72-1.36.69-6.22,3-7.74,3.16-1.52-.15-6.3-2.46-7.66-3.16-15.17-7.77-26.88-22.25-31.31-38.72-3.87-14.38-2.61-28.91-3.06-43.67.23-.52.62-.98,1.17-1.17,4.54.1,13.19-1.66,21.85-5.05,9.01-3.53,15.05-8.12,18.32-11.36.37-.31.43-.35.72-.64.29.29.38.34.75.64,3.27,3.24,9.31,7.83,18.32,11.36,8.67,3.39,17.31,5.15,21.85,5.05.55.19.94.65,1.17,1.17-.45,14.76.8,29.3-3.06,43.67Z"/>
      <path class="cls-2" d="M151.77,122.01l-18.8,18.69-5.46,5.43-13.19-13.02c-.07-.4,4.91-5.17,5.69-5.69l7.49,7.23,5.47-5.44,13.1-13.03,5.48,5.25.23.59Z"/>
    </g>
  </g>
</svg>