<?xml version="1.0" encoding="UTF-8"?>
<svg id="Layer_2" data-name="Layer 2" xmlns="http://www.w3.org/2000/svg" xmlns:xlink="http://www.w3.org/1999/xlink" viewBox="0 0 265.94 265.94">
  <defs>
    <style>
      .cls-1 {
        fill: url(#linear-gradient-2);
      }

      .cls-2 {
        fill: none;
        stroke: url(#linear-gradient);
        stroke-miterlimit: 10;
        stroke-width: 10px;
      }
    </style>
    <linearGradient id="linear-gradient" x1="20.37" y1="203.73" x2="245.57" y2="62.21" gradientUnits="userSpaceOnUse">
      <stop offset="0" stop-color="#006837"/>
      <stop offset="1" stop-color="#8cc63f"/>
    </linearGradient>
    <linearGradient id="linear-gradient-2" x1="66.8" y1="132.97" x2="199.14" y2="132.97" xlink:href="#linear-gradient"/>
  </defs>
  <g id="Layer_1-2" data-name="Layer 1">
    <circle class="cls-2" cx="132.97" cy="132.97" r="127.97"/>
    <path class="cls-1" d="M173.87,74.91c-17.34-4.86-32.83,3.55-40.65,19.05l-.53-.16c-8.29-16.05-24.84-24.44-42.58-18.26-13.64,4.76-22.04,17.56-23.32,31.61v6.21c1.55,20.49,21.33,34.45,35.16,47.17,8.17,7.51,16.27,15.09,23.65,23.39.95,1.07,6.9,8.61,7.46,8.51,8.62-10.49,18.1-20.13,28.08-29.32,13.07-12.03,33.15-26.39,37.1-44.58,4-18.45-5.72-38.38-24.37-43.62ZM190.49,117.75c-4,16.06-28.08,33.3-40.08,44.71-6.04,5.75-11.84,11.82-17.31,18.1l-6.32-6.86c-10.77-11.75-23.43-21.56-34.91-32.56-11.6-11.12-21.02-22.84-16.03-40.08,5.17-17.86,27.14-26.45,41.89-13.96,8.66,7.33,12.06,18.55,14.99,29.09.68.08.41-.01.52-.38,2.39-7.93,4.91-16.74,9.97-23.38,19.18-25.19,54.67-4.32,47.29,25.31Z"/>
  </g>
</svg>