<svg xmlns="http://www.w3.org/2000/svg" viewBox="0 0 600 420" width="600" height="420" font-family="Georgia, serif">
  <!-- Paper background -->
  <rect width="600" height="420" fill="#F9FFF5"/>

  <!-- Outer border -->
  <rect x="10" y="10" width="580" height="400" fill="none" stroke="#1a3d28" stroke-width="3"/>
  <rect x="16" y="16" width="568" height="388" fill="none" stroke="#1a3d28" stroke-width="1"/>
  <rect x="20" y="20" width="560" height="380" fill="none" stroke="#8bc34a" stroke-width="1.5"/>

  <!-- Corner ornaments -->
  <g fill="#1a3d28">
    <rect x="10" y="10" width="30" height="4"/>
    <rect x="10" y="10" width="4" height="30"/>
    <rect x="560" y="10" width="30" height="4"/>
    <rect x="586" y="10" width="4" height="30"/>
    <rect x="10" y="406" width="30" height="4"/>
    <rect x="10" y="380" width="4" height="30"/>
    <rect x="560" y="406" width="30" height="4"/>
    <rect x="586" y="380" width="4" height="30"/>
  </g>

  <!-- Header band -->
  <rect x="20" y="20" width="560" height="70" fill="#1a3d28"/>

  <!-- Emblem -->
  <circle cx="60" cy="55" r="24" fill="none" stroke="#8bc34a" stroke-width="1.5"/>
  <circle cx="60" cy="55" r="18" fill="#8bc34a" fill-opacity="0.15"/>
  <text x="60" y="50" text-anchor="middle" font-size="8" fill="#8bc34a" font-weight="bold">A2 MILK</text>
  <text x="60" y="61" text-anchor="middle" font-size="6" fill="#8bc34a">CERTIFIED</text>

  <!-- Header text -->
  <text x="300" y="43" text-anchor="middle" font-size="9" fill="#8bc34a" letter-spacing="3" font-family="Arial, sans-serif">CERTIFIED GIR COW FARM NETWORK, INDIA</text>
  <text x="300" y="58" text-anchor="middle" font-size="16" fill="white" font-weight="bold" letter-spacing="1">A2 Milk Certification</text>
  <text x="300" y="74" text-anchor="middle" font-size="8" fill="#a8cc88" letter-spacing="2" font-family="Arial, sans-serif">A2 MILK CERTIFICATION BOARD · β-CASEIN PROTEIN VERIFIED</text>

  <!-- Watermark -->
  <text x="300" y="260" text-anchor="middle" font-size="70" fill="#1a3d28" fill-opacity="0.04" font-weight="bold" transform="rotate(-20, 300, 260)">A2 MILK</text>

  <!-- Body -->
  <text x="300" y="120" text-anchor="middle" font-size="10" fill="#555" font-family="Arial, sans-serif">This is to certify that the dairy produce of</text>

  <text x="300" y="148" text-anchor="middle" font-size="22" fill="#1a3d28" font-weight="bold">Aavya Foods Pvt. Ltd.</text>
  <line x1="160" y1="155" x2="440" y2="155" stroke="#8bc34a" stroke-width="1"/>

  <text x="300" y="176" text-anchor="middle" font-size="10" fill="#555" font-family="Arial, sans-serif">sourced from indigenous Gir cows at registered farm — HP-GIR-0044</text>
  <text x="300" y="194" text-anchor="middle" font-size="10" fill="#555" font-family="Arial, sans-serif">has been verified and certified to contain</text>

  <text x="300" y="216" text-anchor="middle" font-size="11" fill="#1a3d28" font-weight="bold" font-family="Arial, sans-serif">A2 β-Casein Verified Milk from Indigenous Gir Cow Breed</text>

  <!-- Details box -->
  <rect x="80" y="232" width="440" height="80" fill="#edf7e6" rx="4"/>
  <line x1="300" y1="232" x2="300" y2="312" stroke="#ccc" stroke-width="1"/>
  <line x1="80" y1="272" x2="520" y2="272" stroke="#ccc" stroke-width="1"/>

  <text x="130" y="249" text-anchor="middle" font-size="8" fill="#888" font-family="Arial, sans-serif">CERTIFICATE NUMBER</text>
  <text x="130" y="264" text-anchor="middle" font-size="11" fill="#1a3d28" font-weight="bold" font-family="Arial, sans-serif">A2/GIR/2024/0312</text>

  <text x="400" y="249" text-anchor="middle" font-size="8" fill="#888" font-family="Arial, sans-serif">BREED VERIFIED</text>
  <text x="400" y="264" text-anchor="middle" font-size="11" fill="#1a3d28" font-weight="bold" font-family="Arial, sans-serif">Gir (Bos Indicus)</text>

  <text x="130" y="289" text-anchor="middle" font-size="8" fill="#888" font-family="Arial, sans-serif">DATE OF ISSUE</text>
  <text x="130" y="304" text-anchor="middle" font-size="11" fill="#1a3d28" font-weight="bold" font-family="Arial, sans-serif">20 February 2024</text>

  <text x="400" y="289" text-anchor="middle" font-size="8" fill="#888" font-family="Arial, sans-serif">VALID UNTIL</text>
  <text x="400" y="304" text-anchor="middle" font-size="11" fill="#1a3d28" font-weight="bold" font-family="Arial, sans-serif">19 February 2026</text>

  <!-- Signature section -->
  <line x1="100" y1="365" x2="220" y2="365" stroke="#999" stroke-width="1"/>
  <text x="160" y="375" text-anchor="middle" font-size="8" fill="#777" font-family="Arial, sans-serif">Certification Officer</text>
  <text x="160" y="385" text-anchor="middle" font-size="7" fill="#999" font-family="Arial, sans-serif">A2 Milk Certification Board</text>

  <!-- Seal -->
  <circle cx="300" cy="362" r="26" fill="none" stroke="#1a3d28" stroke-width="1.5"/>
  <circle cx="300" cy="362" r="20" fill="#1a3d28" fill-opacity="0.06"/>
  <circle cx="300" cy="362" r="14" fill="none" stroke="#1a3d28" stroke-width="0.8"/>
  <text x="300" y="357" text-anchor="middle" font-size="6" fill="#1a3d28" font-weight="bold">A2 MILK</text>
  <text x="300" y="367" text-anchor="middle" font-size="5" fill="#1a3d28">CERTIFIED</text>

  <line x1="380" y1="365" x2="500" y2="365" stroke="#999" stroke-width="1"/>
  <text x="440" y="375" text-anchor="middle" font-size="8" fill="#777" font-family="Arial, sans-serif">Veterinary Inspector</text>
  <text x="440" y="385" text-anchor="middle" font-size="7" fill="#999" font-family="Arial, sans-serif">Gir Cow Farm Network, India</text>

  <!-- Bottom note -->
  <text x="300" y="402" text-anchor="middle" font-size="7" fill="#aaa" font-family="Arial, sans-serif">Certification confirms absence of A1 β-casein. Verified by DNA genotyping and third-party lab analysis per A2MCB standards.</text>
</svg>
